<?xml version="1.0" encoding="UTF-8" standalone="no"?>
<!-- Created with Inkscape (http://www.inkscape.org/) -->

<svg
   xmlns:dc="http://purl.org/dc/elements/1.1/"
   xmlns:cc="http://creativecommons.org/ns#"
   xmlns:rdf="http://www.w3.org/1999/02/22-rdf-syntax-ns#"
   xmlns:svg="http://www.w3.org/2000/svg"
   xmlns="http://www.w3.org/2000/svg"
   xmlns:sodipodi="http://sodipodi.sourceforge.net/DTD/sodipodi-0.dtd"
   xmlns:inkscape="http://www.inkscape.org/namespaces/inkscape"
   width="210mm"
   height="297mm"
   viewBox="0 0 210 297"
   version="1.1"
   id="svg8"
   inkscape:version="0.92.2 5c3e80d, 2017-08-06"
   sodipodi:docname="yay.svg">
  <defs
     id="defs2" />
  <sodipodi:namedview
     id="base"
     pagecolor="#ffffff"
     bordercolor="#666666"
     borderopacity="1.0"
     inkscape:pageopacity="0.0"
     inkscape:pageshadow="2"
     inkscape:zoom="0.70710678"
     inkscape:cx="574.61626"
     inkscape:cy="465.99882"
     inkscape:document-units="mm"
     inkscape:current-layer="layer1"
     showgrid="false"
     inkscape:window-width="1280"
     inkscape:window-height="701"
     inkscape:window-x="0"
     inkscape:window-y="1"
     inkscape:window-maximized="1" />
  <metadata
     id="metadata5">
    <rdf:RDF>
      <cc:Work
         rdf:about="">
        <dc:format>image/svg+xml</dc:format>
        <dc:type
           rdf:resource="http://purl.org/dc/dcmitype/StillImage" />
        <dc:title></dc:title>
      </cc:Work>
    </rdf:RDF>
  </metadata>
  <g
     inkscape:label="Layer 1"
     inkscape:groupmode="layer"
     id="layer1">
    <path
       style="fill:#000000;stroke-width:0.26458335"
       d="m 102.09028,233.48781 c 1.27331,-0.0485 3.35691,-0.0485 4.63021,0 1.27331,0.0485 0.23151,0.0882 -2.3151,0.0882 -2.54662,0 -3.58841,-0.0397 -2.31511,-0.0882 z m -5.15937,-0.25898 c 0.472942,-0.0587 1.246849,-0.0587 1.719791,0 0.472943,0.0587 0.08599,0.10671 -0.859896,0.10671 -0.945885,0 -1.332838,-0.048 -0.859895,-0.10671 z m 13.22917,0 c 0.47294,-0.0587 1.24685,-0.0587 1.71979,0 0.47294,0.0587 0.086,0.10671 -0.8599,0.10671 -0.94588,0 -1.33284,-0.048 -0.85989,-0.10671 z m -15.875004,-0.25991 c 0.327422,-0.0631 0.863203,-0.0631 1.190625,0 0.327422,0.0631 0.05953,0.11466 -0.595312,0.11466 -0.654844,0 -0.922735,-0.0516 -0.595313,-0.11466 z m 19.050004,0 c 0.32742,-0.0631 0.8632,-0.0631 1.19062,0 0.32742,0.0631 0.0595,0.11466 -0.59531,0.11466 -0.65484,0 -0.92274,-0.0516 -0.59531,-0.11466 z m -22.423442,-0.34244 c -1.322363,-0.27834 0.03424,-0.28989 1.587501,-0.0135 1.073978,0.19109 1.099899,0.21168 0.264583,0.21014 -0.509323,-10e-4 -1.342761,-0.0894 -1.852084,-0.19664 z m 25.400002,-0.0135 c 1.59663,-0.2841 2.84812,-0.25943 1.45521,0.0287 -0.58209,0.1204 -1.41552,0.21087 -1.85209,0.20104 -0.59522,-0.0134 -0.49595,-0.0709 0.39688,-0.22972 z m -11.77719,-6.13807 c -0.11799,-3.38336 -0.1867,-7.06196 -0.15269,-8.17467 0.0373,-1.22049 -0.0507,-2.09265 -0.22185,-2.19842 -0.18979,-0.1173 -0.28369,-2.39609 -0.28369,-6.88495 0,-3.69029 -0.0723,-6.89795 -0.1606,-7.12814 -0.12574,-0.32767 -0.62824,-0.43007 -2.3151,-0.47176 l -2.154506,-0.0532 2.108576,-0.0912 c 1.26227,-0.0546 2.18984,-0.21908 2.31105,-0.40978 0.15554,-0.2447 0.20342,-0.24187 0.20653,0.0122 0.003,0.23823 0.72558,0.34472 2.58374,0.38073 l 2.57969,0.05 -2.38125,0.14844 -2.38125,0.14844 -0.0647,7.14375 c -0.0442,4.88185 0.0201,7.01809 0.20294,6.74687 0.18924,-0.28065 0.26027,0.30047 0.24256,1.98438 -0.0138,1.30969 0.0626,5.20898 0.16965,8.6651 0.10708,3.45612 0.1341,6.28386 0.06,6.28386 -0.0741,0 -0.23119,-2.76821 -0.34917,-6.15157 z m -17.854531,5.41591 c -1.09052,-0.22658 -1.861243,-0.45246 -1.712719,-0.50197 0.148521,-0.0495 1.338421,0.13727 2.644219,0.41505 1.305798,0.27778 2.076522,0.50366 1.712719,0.50196 -0.363802,-0.002 -1.553702,-0.18847 -2.644219,-0.41504 z m 34.519441,-0.0869 c 1.3058,-0.27778 2.49199,-0.46579 2.63597,-0.4178 0.30213,0.10071 -4.01664,0.98962 -4.61327,0.94953 -0.21829,-0.0147 0.6715,-0.25395 1.9773,-0.53173 z m -37.216498,-0.68109 c 0.190995,-0.0764 0.419198,-0.067 0.507119,0.0209 0.08792,0.0879 -0.06835,0.15045 -0.347266,0.13896 -0.308226,-0.0127 -0.370919,-0.0754 -0.159853,-0.15985 z m 40.481248,0 c 0.191,-0.0764 0.4192,-0.067 0.50712,0.0209 0.0879,0.0879 -0.0684,0.15045 -0.34726,0.13896 -0.30823,-0.0127 -0.37092,-0.0754 -0.15986,-0.15985 z m -41.539581,-0.26458 c 0.190995,-0.0764 0.419198,-0.067 0.507119,0.0209 0.08792,0.0879 -0.06835,0.15045 -0.347266,0.13896 -0.308226,-0.0127 -0.370919,-0.0754 -0.159853,-0.15985 z m 42.597921,0 c 0.19099,-0.0764 0.4192,-0.067 0.50712,0.0209 0.0879,0.0879 -0.0684,0.15045 -0.34727,0.13896 -0.30823,-0.0127 -0.37092,-0.0754 -0.15985,-0.15985 z m -46.649354,-1.00396 c -3.338922,-1.02778 -7.464623,-2.56974 -8.531328,-3.18854 -0.892024,-0.51746 -0.655624,-0.43942 2.807163,0.92672 1.508376,0.59508 4.127751,1.49842 5.820834,2.00742 3.598092,1.08172 3.733749,1.12995 3.210623,1.14151 -0.218281,0.005 -1.706562,-0.39437 -3.307292,-0.88711 z m 49.080214,0.37607 c 0.94588,-0.29124 3.20807,-1.04781 5.02708,-1.68127 1.81901,-0.63346 3.54542,-1.23292 3.83646,-1.33214 0.29105,-0.0992 0.21453,0.003 -0.17006,0.22691 -0.8651,0.50391 -8.22146,2.95779 -9.48723,3.16467 -0.50933,0.0832 -0.15214,-0.0869 0.79375,-0.37817 z m 14.70413,-5.78566 c 16.54387,-8.23927 29.63196,-21.05904 37.74702,-36.97321 2.30509,-4.52043 3.0136,-6.14713 4.59065,-10.53979 0.62693,-1.74625 1.14588,-3.02427 1.15321,-2.84003 0.0319,0.8029 -2.57895,7.42483 -4.458,11.30669 -4.43636,9.16494 -9.46109,16.23707 -16.54411,23.28528 -6.52972,6.49762 -13.73149,11.65425 -22.17303,15.87638 -2.76035,1.38062 -5.1468,2.51022 -5.30324,2.51022 -0.15643,0 2.08794,-1.18149 4.9875,-2.62554 z m -76.748928,0.20472 c -12.406395,-6.2644 -22.312375,-14.53389 -30.591176,-25.53747 -4.285729,-5.69628 -8.999741,-14.47486 -11.48434,-21.3865 -1.31985,-3.67155 -3.156787,-10.51793 -3.407508,-12.7 -0.0836,-0.72761 0.138895,-0.0288 0.494437,1.55292 1.728463,7.68946 3.728258,13.36 7.069618,20.04635 8.038113,16.08494 20.814659,28.93133 37.116882,37.31978 2.47844,1.27531 4.387192,2.31634 4.241671,2.31341 -0.145521,-0.003 -1.693333,-0.72676 -3.439584,-1.60849 z M 95.80643,201.01386 c -2.110274,-0.44414 -1.05469,-0.4539 1.455209,-0.0134 1.116327,0.19589 1.579287,0.34808 1.058333,0.34789 -0.509323,-1.8e-4 -1.640417,-0.15069 -2.513542,-0.33445 z m 13.82757,0.20466 c 0.32911,-0.0633 0.80536,-0.0609 1.05833,0.005 0.25296,0.0662 -0.0163,0.11801 -0.5984,0.11507 -0.58208,-0.003 -0.78905,-0.0571 -0.45993,-0.12041 z m 1.98632,-0.26081 c 0.25743,-0.0671 0.61462,-0.0627 0.79375,0.01 0.17913,0.0725 -0.0315,0.12737 -0.46806,0.12198 -0.43656,-0.005 -0.58312,-0.0647 -0.32569,-0.13178 z m 4.08329,-0.86515 c 1.63012,-0.41792 3.23746,-0.84401 3.57188,-0.94688 0.33441,-0.10286 0.52727,-0.10139 0.42856,0.003 -0.24225,0.25686 -5.76942,1.73011 -6.43512,1.71526 -0.29104,-0.006 0.80456,-0.35373 2.43468,-0.77165 z m -22.195747,0.3386 c 0.190994,-0.0764 0.4192,-0.067 0.507118,0.0209 0.08792,0.0879 -0.06835,0.15045 -0.347265,0.13897 -0.308227,-0.0127 -0.37092,-0.0754 -0.159853,-0.15985 z m -2.331641,-0.48072 c -1.235094,-0.47563 -0.701509,-0.48483 0.79375,-0.0137 0.654844,0.20634 0.9525,0.37407 0.661458,0.37273 -0.291041,-0.001 -0.945885,-0.16291 -1.455208,-0.35905 z m -2.860808,-0.8422 c -0.62756,-0.22195 -1.094263,-0.4503 -1.037121,-0.50744 0.05714,-0.0571 0.749191,0.12515 1.53789,0.4051 0.788697,0.27995 1.255403,0.5083 1.037122,0.50744 -0.218281,-7.9e-4 -0.910333,-0.18315 -1.537891,-0.4051 z m 31.964976,-0.30379 c 0.21828,-0.13487 0.69453,-0.32483 1.05833,-0.42214 0.45971,-0.12297 0.54041,-0.10214 0.26459,0.0683 -0.21828,0.13487 -0.69453,0.32483 -1.05834,0.42214 -0.45971,0.12297 -0.54041,0.10214 -0.26458,-0.0683 z M 82.545172,196.5122 c -4.995024,-2.51617 -8.109527,-4.73982 -12.231135,-8.7326 -3.601522,-3.48895 -6.341637,-6.93572 -8.743964,-10.99896 -1.504878,-2.54532 -3.886195,-7.58751 -3.680539,-7.79317 0.05437,-0.0544 0.599273,1.056 1.210905,2.46748 4.602599,10.62155 13.220079,19.67745 23.724411,24.93139 2.318985,1.15989 4.090482,2.10889 3.936658,2.10889 -0.153823,0 -2.051174,-0.89237 -4.216336,-1.98303 z m 42.630008,0.14955 c 11.84764,-5.82337 20.98132,-16.10177 25.64421,-28.85819 0.50533,-1.38245 0.925,-2.37283 0.9326,-2.20086 0.008,0.17197 -0.34279,1.27984 -0.77864,2.46194 -4.69385,12.73041 -13.77054,22.94846 -25.52662,28.7365 -1.5969,0.78623 -3.02565,1.42764 -3.175,1.42535 -0.14935,-0.002 1.1572,-0.70642 2.90345,-1.56474 z m -22.68802,-20.852 c 0.90951,-0.0517 2.39779,-0.0517 3.30729,0 0.90951,0.0517 0.16537,0.0939 -1.65364,0.0939 -1.81901,0 -2.56316,-0.0423 -1.65365,-0.0939 z m -3.037674,-0.25204 c 0.257432,-0.0671 0.614624,-0.0627 0.793754,0.01 0.17913,0.0725 -0.0315,0.12737 -0.46806,0.12197 -0.436562,-0.005 -0.583125,-0.0647 -0.325694,-0.13177 z m 8.461634,0.001 c 0.25466,-0.0666 0.67138,-0.0666 0.92604,0 0.25466,0.0665 0.0463,0.121 -0.46302,0.121 -0.50932,0 -0.71768,-0.0545 -0.46302,-0.121 z m -9.921877,-0.25743 c 0.181901,-0.0734 0.479557,-0.0734 0.661458,0 0.181901,0.0734 0.03307,0.13345 -0.330729,0.13345 -0.363802,0 -0.51263,-0.06 -0.330729,-0.13345 z m 11.641667,0 c 0.1819,-0.0734 0.47956,-0.0734 0.66146,0 0.1819,0.0734 0.0331,0.13345 -0.33073,0.13345 -0.3638,0 -0.51263,-0.06 -0.33073,-0.13345 z m -12.683464,-0.27009 c 0.190995,-0.0764 0.419201,-0.067 0.507119,0.0209 0.08792,0.0879 -0.06835,0.15045 -0.347266,0.13897 -0.308226,-0.0127 -0.370919,-0.0754 -0.159853,-0.15985 z m 6.983344,-3.7881 c -0.0309,-2.25558 -0.13386,-6.14875 -0.2288,-8.6515 l -0.17262,-4.55046 -0.68647,-0.10626 c -0.6114,-0.0946 -0.59567,-0.11058 0.14382,-0.14589 l 0.83029,-0.0396 0.18225,6.15157 c 0.10023,3.38336 0.13847,7.34219 0.085,8.79739 -0.0793,2.15663 -0.10766,1.88757 -0.15345,-1.4552 z m 7.03957,3.78801 c 0.191,-0.0764 0.4192,-0.067 0.50712,0.0209 0.0879,0.0879 -0.0683,0.15045 -0.34726,0.13897 -0.30823,-0.0127 -0.37092,-0.0754 -0.15986,-0.15985 z m -15.693096,-0.34843 c -0.333545,-0.14333 -0.38245,-0.22739 -0.132292,-0.22739 0.218281,0 0.635,0.10232 0.926042,0.22739 0.333544,0.14333 0.38245,0.22739 0.132291,0.22739 -0.218281,0 -0.635,-0.10233 -0.926041,-0.22739 z m 18.388546,-0.5015 c 4.24502,-1.58377 7.11762,-3.39776 10.06767,-6.35756 1.09883,-1.10247 2.46805,-2.73203 3.04271,-3.62127 1.67013,-2.58438 1.7389,-2.67294 1.20489,-1.55139 -1.71106,3.5936 -6.41714,8.05811 -10.86632,10.30853 -1.68206,0.85079 -4.63811,1.99355 -5.10864,1.97491 -0.17858,-0.007 0.56828,-0.34602 1.65969,-0.75322 z m -20.769796,-0.40708 c -1.738191,-0.8372 -1.399321,-0.86303 0.42909,-0.0327 0.782646,0.35542 1.30393,0.65155 1.15841,0.65806 -0.145521,0.007 -0.859896,-0.2749 -1.5875,-0.62535 z m 93.282396,-0.21295 c -0.009,-0.10752 0.23389,-1.10915 0.54025,-2.22584 0.30637,-1.1167 0.84089,-3.29092 1.18783,-4.8316 0.34694,-1.54068 0.56403,-2.22767 0.48243,-1.52664 -0.24696,2.12139 -2.13571,9.45599 -2.21051,8.58408 z m -96.30062,-1.26418 c -4.19802,-2.31397 -8.070972,-6.33773 -10.239709,-10.63842 -0.493501,-0.97863 -0.8938,-1.8716 -0.889551,-1.98437 0.0043,-0.11278 0.510263,0.75091 1.12448,1.9193 0.614214,1.16839 1.570445,2.74198 2.124959,3.49685 1.447286,1.97025 5.156369,5.35308 7.044645,6.42501 1.721456,0.97722 2.614649,1.5607 2.398191,1.56663 -0.07276,0.002 -0.776118,-0.35126 -1.563015,-0.785 z m -33.044857,-6.12311 c -0.906385,-2.86663 -1.484746,-5.22843 -1.320548,-5.39263 0.063,-0.063 0.331613,0.8062 0.596913,1.93155 0.265303,1.12535 0.762698,2.8703 1.105326,3.87766 0.342625,1.00737 0.57273,1.8818 0.511342,1.94319 -0.06139,0.0614 -0.463251,-1.00051 -0.893033,-2.35977 z m 95.098187,-1.80993 c 0.0924,-0.50932 0.27212,-1.16417 0.39948,-1.45521 0.15897,-0.36327 0.17892,-0.23884 0.0636,0.39687 -0.0924,0.50933 -0.27213,1.16417 -0.39949,1.45521 -0.15896,0.36327 -0.17892,0.23885 -0.0636,-0.39687 z M 20.054883,162.90877 c 0.0054,-0.43656 0.06469,-0.58313 0.131773,-0.32569 0.06708,0.25743 0.06267,0.61461 -0.0098,0.79375 -0.07248,0.17913 -0.127362,-0.0315 -0.121969,-0.46806 z m 168.539587,0 c 0.005,-0.43656 0.0647,-0.58313 0.13178,-0.32569 0.0671,0.25743 0.0627,0.61461 -0.01,0.79375 -0.0725,0.17913 -0.12736,-0.0315 -0.12197,-0.46806 z m -35.99194,-0.92604 c -0.0109,-0.21828 0.14132,-1.11125 0.33833,-1.98438 0.19703,-0.87312 0.35899,-1.28984 0.35994,-0.92604 0.002,0.74221 -0.66717,3.53103 -0.69827,2.91042 z M 19.800103,161.18898 c 0,-0.50932 0.05445,-0.71768 0.121,-0.46302 0.06655,0.25466 0.06655,0.67138 0,0.92604 -0.06655,0.25466 -0.121,0.0463 -0.121,-0.46302 z m 169.068757,0 c 0,-0.50932 0.0544,-0.71768 0.121,-0.46302 0.0666,0.25466 0.0666,0.67138 0,0.92604 -0.0666,0.25466 -0.121,0.0463 -0.121,-0.46302 z m -60.09159,-0.39688 c 0.005,-0.14552 0.23806,-0.74083 0.51798,-1.32291 0.27993,-0.58209 0.43485,-0.76068 0.34428,-0.39688 -0.18651,0.74917 -0.87607,2.1245 -0.86226,1.71979 z m -73.801124,-2.17887 c -0.171834,-1.04049 -0.300895,-2.22606 -0.286798,-2.63459 0.0141,-0.40853 0.192376,0.32878 0.396184,1.63846 0.203806,1.30969 0.332867,2.49526 0.286801,2.6346 -0.04607,0.13934 -0.224351,-0.59797 -0.396187,-1.63847 z m -35.429947,0.45908 c 0,-0.65484 0.0516,-0.92273 0.114662,-0.59531 0.06306,0.32742 0.06306,0.8632 0,1.19062 -0.06306,0.32743 -0.114662,0.0595 -0.114662,-0.59531 z m 169.597921,0 c 0,-0.65484 0.0516,-0.92273 0.11466,-0.59531 0.0631,0.32742 0.0631,0.8632 0,1.19062 -0.0631,0.32743 -0.11466,0.0595 -0.11466,-0.59531 z M 78.376616,158.92979 c -0.09074,-0.23646 -0.157432,-0.56901 -0.148206,-0.73901 0.0092,-0.17 0.130844,-0.0239 0.270267,0.32463 0.139422,0.34855 0.206115,0.68111 0.148206,0.73902 -0.05791,0.0579 -0.179531,-0.0882 -0.270267,-0.32464 z m 75.038074,-1.44498 c 0,-0.50932 0.0545,-0.71768 0.121,-0.46302 0.0666,0.25466 0.0666,0.67138 0,0.92604 -0.0665,0.25466 -0.121,0.0463 -0.121,-0.46302 z m -48.41399,0.34678 c 0.25466,-0.0666 0.67138,-0.0666 0.92604,0 0.25466,0.0666 0.0463,0.121 -0.46302,0.121 -0.50932,0 -0.71768,-0.0544 -0.46302,-0.121 z m -85.706461,-1.6697 c 0,-0.94588 0.04802,-1.33283 0.106712,-0.85989 0.05869,0.47294 0.05869,1.24685 0,1.71979 -0.05869,0.47294 -0.106712,0.086 -0.106712,-0.8599 z m 58.422194,0.42214 c -0.1642,-0.65209 -0.288626,-1.40079 -0.276503,-1.66378 0.01212,-0.26298 0.192141,0.22488 0.40004,1.08414 0.207896,0.85926 0.332322,1.60796 0.276503,1.66378 -0.05582,0.0558 -0.235839,-0.43204 -0.40004,-1.08414 z m 22.179334,0.30379 c -1.43302,-0.85531 -3.163295,-2.96147 -3.163295,-3.85049 0,-0.2304 0.309965,0.2031 0.688811,0.96335 0.746768,1.49857 1.706446,2.36325 3.552047,3.20043 0.65071,0.29516 0.99924,0.53928 0.77452,0.54247 -0.22472,0.003 -1.05816,-0.38189 -1.852083,-0.85576 z m 7.677093,0.31329 c 1.84561,-0.83718 2.80528,-1.70186 3.55205,-3.20043 0.37885,-0.76025 0.68881,-1.19375 0.68881,-0.96335 0,0.88902 -1.73027,2.99518 -3.16329,3.85049 -0.79393,0.47387 -1.62737,0.85896 -1.85209,0.85576 -0.22471,-0.003 0.12382,-0.24731 0.77452,-0.54247 z m 81.84847,-1.03922 c 0,-0.94588 0.048,-1.33283 0.10671,-0.85989 0.0587,0.47294 0.0587,1.24685 0,1.71979 -0.0587,0.47294 -0.10671,0.086 -0.10671,-0.8599 z m -59.33047,0.904 c 0.0127,-0.30823 0.0754,-0.37092 0.15985,-0.15985 0.0764,0.19099 0.067,0.4192 -0.0209,0.50711 -0.0879,0.0879 -0.15046,-0.0684 -0.13897,-0.34726 z m 0.28547,-1.16858 c 0,-0.3638 0.0601,-0.51263 0.13345,-0.33073 0.0734,0.1819 0.0734,0.47956 0,0.66146 -0.0734,0.1819 -0.13345,0.0331 -0.13345,-0.33073 z m 23.31723,-0.66146 c 0.002,-0.7276 0.0534,-0.99385 0.11419,-0.59167 0.0608,0.40218 0.0592,0.99749 -0.004,1.32292 -0.0628,0.32542 -0.11256,-0.004 -0.11057,-0.73125 z m -99.205467,-1.98437 c 0,-1.09141 0.0467,-1.53789 0.103785,-0.99219 0.05708,0.5457 0.05708,1.43867 0,1.98438 -0.05708,0.5457 -0.103785,0.0992 -0.103785,-0.99219 z m 76.162627,1.19062 c 0.005,-0.43656 0.0647,-0.58312 0.13177,-0.32569 0.0671,0.25743 0.0627,0.61462 -0.01,0.79375 -0.0725,0.17913 -0.12736,-0.0315 -0.12197,-0.46806 z M 19.053784,149.81189 c 0,-2.54661 0.03968,-3.58841 0.08818,-2.3151 0.0485,1.27331 0.0485,3.3569 0,4.63021 -0.0485,1.27331 -0.08818,0.23151 -0.08818,-2.31511 z m 58.149548,3.12826 c -0.03936,-1.18174 -0.148741,-1.52775 -0.513048,-1.62295 -0.422042,-0.11029 -0.423162,-0.12372 -0.01262,-0.1517 0.361879,-0.0247 0.468858,-0.35568 0.544333,-1.68433 l 0.09394,-1.65365 0.05098,1.69348 0.05098,1.69348 9.458855,-0.11569 c 5.20237,-0.0636 8.327761,-0.0353 6.945313,0.0628 -1.382448,0.0982 -5.63299,0.19186 -9.445652,0.20815 l -6.932113,0.0296 -0.09547,1.52136 -0.09547,1.52135 z M 189.70949,149.6796 c -2.7e-4,-2.47385 0.0395,-3.5215 0.0884,-2.32809 0.0489,1.1934 0.0492,3.21746 5.3e-4,4.49791 -0.0486,1.28046 -0.0886,0.30404 -0.0889,-2.16982 z m -35.71992,0 c 2.7e-4,-2.32833 0.0408,-3.24541 0.09,-2.03796 0.0491,1.20746 0.0489,3.11246 -5.3e-4,4.23334 -0.0495,1.12088 -0.0897,0.13296 -0.0893,-2.19538 z m -23.03193,1.32292 c -7.9e-4,-1.30969 0.0439,-1.87883 0.0994,-1.26475 0.0555,0.61407 0.0562,1.68563 0.002,2.38125 -0.0547,0.69561 -0.10008,0.19319 -0.10089,-1.1165 z m -34.471154,0.50712 c 0.01024,-0.56996 0.119764,-1.27441 0.243414,-1.56545 0.139909,-0.32931 0.168849,0.0205 0.07662,0.92604 -0.177467,1.74264 -0.345874,2.07911 -0.320038,0.63941 z m 15.301494,0.22664 c -0.08,-0.46956 -0.0492,-1.00534 0.0684,-1.19063 0.16786,-0.26449 0.21467,-0.26581 0.21786,-0.006 0.005,0.42092 12.8416,0.48573 13.10092,0.0661 0.0901,-0.14581 1.27213,-0.26458 2.63314,-0.26458 1.95114,0 2.5016,0.0833 2.62192,0.39688 0.0928,0.24175 5.3e-4,0.39687 -0.23628,0.39687 -0.21371,1e-5 -0.38857,-0.12812 -0.38857,-0.28472 0,-0.19344 -0.69982,-0.23235 -2.18281,-0.12136 -1.20055,0.0898 -5.18178,0.22366 -8.84719,0.29736 l -6.66437,0.13399 -0.0888,0.71498 c -0.0859,0.69165 -0.0936,0.68713 -0.23421,-0.13877 z M 54.186134,149.6796 c 0.0054,-0.43656 0.06469,-0.58312 0.131773,-0.32569 0.06708,0.25743 0.06267,0.61462 -0.0098,0.79375 -0.07248,0.17913 -0.127362,-0.0315 -0.12197,-0.46806 z m 42.810921,-0.58451 c 0,-0.14686 0.501478,-0.83674 1.114399,-1.53305 1.043403,-1.18537 3.257306,-2.51235 4.177266,-2.50378 0.21828,0.002 -0.29809,0.28944 -1.14749,0.63869 -1.742052,0.71628 -2.308583,1.15646 -3.38916,2.63329 -0.415258,0.56754 -0.755015,0.91172 -0.755015,0.76485 z m 13.969145,-0.53997 c -0.72916,-1.22682 -1.91787,-2.1826 -3.54806,-2.85281 -0.85665,-0.3522 -1.37895,-0.64202 -1.16067,-0.64405 0.91996,-0.009 3.13387,1.31841 4.17727,2.50378 0.61292,0.69631 1.1144,1.36832 1.1144,1.49336 0,0.37481 -0.12825,0.26475 -0.58294,-0.50028 z m 19.69432,-0.85989 c 0,-0.50932 0.0545,-0.71768 0.12101,-0.46302 0.0665,0.25466 0.0665,0.67138 0,0.92604 -0.0666,0.25466 -0.12101,0.0463 -0.12101,-0.46302 z m -76.172427,-1.5875 c 0,-1.09141 0.0467,-1.53789 0.103785,-0.99219 0.05708,0.5457 0.05708,1.43867 0,1.98438 -0.05708,0.5457 -0.103785,0.0992 -0.103785,-0.99219 z m 22.981375,0.92604 c 0.0054,-0.43656 0.06469,-0.58313 0.131774,-0.32569 0.06708,0.25743 0.06267,0.61461 -0.0098,0.79375 -0.07248,0.17913 -0.127363,-0.0315 -0.121971,-0.46806 z m 52.765872,-1.2237 c -0.22057,-1.10285 -0.007,-1.3166 0.23151,-0.23151 0.10046,0.45738 0.12749,0.88674 0.0601,0.95415 -0.0674,0.0674 -0.19863,-0.25778 -0.2916,-0.72264 z m -52.53198,-0.12126 c 0.0127,-0.30823 0.07539,-0.37092 0.159851,-0.15986 0.07643,0.191 0.06703,0.4192 -0.02088,0.50712 -0.08792,0.0879 -0.150452,-0.0683 -0.138964,-0.34726 z m 75.9902,-1.56546 c 0.002,-0.7276 0.0534,-0.99385 0.11419,-0.59167 0.0608,0.40218 0.0592,0.99749 -0.004,1.32292 -0.0628,0.32542 -0.11256,-0.004 -0.11057,-0.73125 z m -75.732721,0.73753 c -0.01767,-0.41111 1.065488,-3.31833 1.189951,-3.19386 0.05155,0.0515 -0.192006,0.86343 -0.541221,1.80419 -0.349219,0.94076 -0.641147,1.56611 -0.64873,1.38967 z m 25.589391,-0.003 c 0.47555,-0.0589 1.18993,-0.0577 1.5875,0.003 0.39758,0.0604 0.008,0.10855 -0.86463,0.10707 -0.87313,-0.002 -1.19842,-0.0509 -0.72287,-0.10977 z M 19.291539,143.3296 c 0.0015,-0.87312 0.05088,-1.19841 0.109765,-0.72286 0.05889,0.47555 0.05767,1.18992 -0.0027,1.5875 -0.06037,0.39757 -0.10855,0.008 -0.107065,-0.86464 z m 170.127091,0 c 0.002,-0.87312 0.0509,-1.19841 0.10976,-0.72286 0.0589,0.47555 0.0577,1.18992 -0.003,1.5875 -0.0604,0.39757 -0.10856,0.008 -0.10707,-0.86464 z m -59.59558,0.92604 c -0.0448,-0.73767 -1.75679,-4.37032 -2.80887,-5.96021 -1.44262,-2.18007 -4.40869,-5.24624 -6.46805,-6.68633 -1.91734,-1.34078 -2.52027,-1.84409 -1.7151,-1.43172 2.40661,1.23255 6.30317,4.93415 8.25254,7.83964 1.37666,2.05188 3.09926,5.80585 2.89538,6.30976 -0.088,0.21748 -0.1398,0.19383 -0.1559,-0.0711 z m -26.16085,-4.36562 c -0.11565,-6.97682 -0.0749,-15.0128 0.0769,-15.16458 0.0754,-0.0754 0.13716,0.17161 0.13716,0.549 0,0.43099 0.17219,0.73115 0.46302,0.80715 0.43585,0.1139 0.43606,0.12281 0.003,0.1517 -0.42527,0.0284 -0.46501,0.70657 -0.53276,9.09267 -0.0403,4.98409 -0.10676,7.03791 -0.14776,4.56406 z m -48.959951,3.30729 c -0.01365,-0.91349 0.673042,-4.73858 0.712473,-3.96875 0.01119,0.21828 -0.141444,1.40891 -0.339159,2.64583 -0.197718,1.23693 -0.36571,1.83224 -0.373314,1.32292 z m 98.712441,-1.32292 c 0,-0.50932 0.0545,-0.71768 0.121,-0.46302 0.0666,0.25467 0.0666,0.67138 0,0.92605 -0.0665,0.25466 -0.121,0.0463 -0.121,-0.46303 z m 35.72943,-1.32291 c 0,-0.65485 0.0516,-0.92274 0.11466,-0.59531 0.0631,0.32742 0.0631,0.8632 0,1.19062 -0.0631,0.32742 -0.11466,0.0595 -0.11466,-0.59531 z m -169.622838,0 c -0.0077,-0.50933 0.142196,-1.81901 0.333023,-2.91042 0.450853,-2.57858 0.46977,-1.33291 0.02411,1.5875 -0.188758,1.23693 -0.349467,1.83224 -0.357131,1.32292 z m 59.748689,0.62383 c 0,-0.14196 0.185161,-0.48923 0.411472,-0.7717 0.387978,-0.48427 0.393486,-0.47583 0.09645,0.14787 -0.385713,0.8099 -0.507924,0.96 -0.507924,0.62383 z m 73.587239,-2.11211 c -0.17735,-0.96256 -0.27184,-1.80073 -0.20997,-1.8626 0.0619,-0.0619 0.26054,0.67212 0.44148,1.63109 0.18095,0.95897 0.27544,1.79713 0.20998,1.86259 -0.0655,0.0655 -0.26413,-0.66853 -0.44149,-1.63108 z m -72.409618,-0.0741 c 1.25952,-2.43565 5.526604,-6.78502 8.12676,-8.28348 0.741,-0.42704 0.777308,-0.43145 0.227028,-0.0276 -3.619881,2.65658 -6.915801,6.04197 -8.086696,8.30624 -0.219983,0.42539 -0.4595,0.77345 -0.53226,0.77345 -0.07276,0 0.04656,-0.34587 0.265168,-0.7686 z M 188.4645,136.31749 c -0.2614,-1.67313 -0.54557,-3.39924 -0.63149,-3.8358 -0.0859,-0.43657 -0.0859,-0.72985 -7e-5,-0.65174 0.24187,0.22 1.28205,6.29987 1.18925,6.95117 -0.0453,0.31813 -0.2963,-0.79051 -0.55769,-2.46363 z M 55.477391,138.473 c -0.04737,-0.8529 2.027915,-7.86813 2.259179,-7.63687 0.05929,0.0593 -0.08108,0.63239 -0.311933,1.27355 -0.230852,0.64117 -0.758941,2.41591 -1.17353,3.94388 -0.414587,1.52797 -0.76276,2.61672 -0.773716,2.41944 z m 96.575049,-2.83836 c -0.17075,-0.67812 -0.26085,-1.28256 -0.20022,-1.34319 0.0606,-0.0606 0.24995,0.44458 0.42071,1.1227 0.17075,0.67812 0.26084,1.28255 0.20021,1.34319 -0.0606,0.0606 -0.24995,-0.44458 -0.4207,-1.1227 z M 20.320397,134.99523 c -0.0019,-0.74221 0.667166,-3.53103 0.698263,-2.91042 0.01094,0.21828 -0.141313,1.11125 -0.338332,1.98438 -0.19702,0.87312 -0.358989,1.28984 -0.359931,0.92604 z m 130.557413,-3.24476 c -4.32658,-12.47639 -13.94581,-23.34087 -25.70263,-29.02994 -1.74625,-0.84501 -3.62946,-1.67981 -4.18491,-1.85512 -0.55546,-0.17532 -0.95388,-0.37479 -0.88539,-0.44328 0.0685,-0.0685 0.93967,0.19853 1.93596,0.59339 11.74716,4.65578 21.71783,14.22972 27.21875,26.13575 1.1203,2.42473 2.5508,6.25635 2.44849,6.55831 -0.041,0.12105 -0.41463,-0.76055 -0.83027,-1.95911 z M 21.085519,131.34544 c -0.03572,-0.51228 0.850835,-3.91555 0.942556,-3.61824 0.04353,0.14111 -0.145358,1.09001 -0.41976,2.10865 -0.274402,1.01865 -0.509661,1.69796 -0.522796,1.50959 z m 165.670831,-3.02243 c -0.47327,-1.76239 -0.81561,-3.24924 -0.76076,-3.30409 0.1439,-0.1439 1.81099,5.9703 1.70772,6.26321 -0.0476,0.13488 -0.47368,-1.19672 -0.94696,-2.95912 z m -128.752625,1.64513 c 0.297794,-1.17392 2.403679,-5.48732 3.839745,-7.8648 3.296489,-5.45751 9.083829,-11.79662 13.899156,-15.22431 2.372368,-1.68873 6.702639,-4.25087 6.881717,-4.07179 0.06301,0.063 -0.920292,0.67865 -2.185109,1.3681 -5.171991,2.81926 -11.487574,8.39046 -15.394856,13.58035 -2.005423,2.66373 -4.258808,6.44553 -5.589842,9.3813 -0.541038,1.19334 -1.126556,2.46735 -1.301154,2.83115 l -0.31745,0.66146 z m 31.584997,0.13363 c 0,-0.1773 3.207268,-1.77705 3.325566,-1.65876 0.05336,0.0534 -0.673063,0.47677 -1.614273,0.9409 -0.941213,0.46413 -1.711293,0.78717 -1.711293,0.71786 z m 27.252088,-0.79508 c -0.65485,-0.35065 -1.09659,-0.64293 -0.98165,-0.64951 0.28097,-0.0161 2.30456,1.02361 2.30456,1.18405 0,0.17528 0.011,0.17972 -1.32291,-0.53454 z m -3.3073,-1.36058 c -0.87312,-0.35085 -1.23031,-0.56606 -0.79375,-0.47824 0.82218,0.16537 3.11344,1.13915 2.64584,1.12446 -0.14552,-0.005 -0.97896,-0.29537 -1.85209,-0.64622 z m -19.976038,0.21459 c 0.218281,-0.13487 0.694531,-0.32483 1.058333,-0.42214 0.459709,-0.12297 0.540409,-0.10214 0.264584,0.0683 -0.218282,0.13487 -0.694532,0.32483 -1.058334,0.42214 -0.459708,0.12297 -0.540409,0.10214 -0.264583,-0.0683 z m 2.248958,-0.83839 c 0.291042,-0.12507 0.707761,-0.22739 0.926042,-0.22739 0.250158,0 0.201253,0.0841 -0.132292,0.22739 -0.291041,0.12507 -0.70776,0.22739 -0.926041,0.22739 -0.250159,0 -0.201253,-0.0841 0.132291,-0.22739 z m -73.661741,-0.11864 c -0.03746,-0.38024 1.316539,-4.71371 1.435603,-4.59465 0.05707,0.0571 -0.237036,1.17067 -0.653562,2.47467 -0.416527,1.304 -0.768446,2.25799 -0.782041,2.11998 z m 88.346121,-0.14594 c -0.53175,-0.1703 -0.55769,-0.21336 -0.1323,-0.21961 0.29105,-0.004 0.7673,0.0945 1.05834,0.21961 0.67421,0.28972 -0.0214,0.28972 -0.92604,0 z M 97.460076,126.8825 c 0.181901,-0.0734 0.479558,-0.0734 0.661459,0 0.181901,0.0734 0.03307,0.13345 -0.33073,0.13345 -0.363802,0 -0.51263,-0.0601 -0.330729,-0.13345 z m 1.460244,-0.27271 c 0.257431,-0.0671 0.614619,-0.0627 0.79375,0.01 0.179131,0.0725 -0.03149,0.12736 -0.468056,0.12197 -0.436563,-0.005 -0.583126,-0.0647 -0.325694,-0.13178 z m 9.78958,0 c 0.25744,-0.0671 0.61462,-0.0627 0.79375,0.01 0.17913,0.0725 -0.0315,0.12736 -0.46805,0.12197 -0.43657,-0.005 -0.58313,-0.0647 -0.3257,-0.13178 z m -8.07482,-0.26795 c 0.32742,-0.0631 0.8632,-0.0631 1.19062,0 0.32742,0.0631 0.0595,0.11466 -0.59531,0.11466 -0.65484,0 -0.92274,-0.0516 -0.59531,-0.11466 z m 5.69218,-0.003 c 0.40218,-0.0608 0.99749,-0.0592 1.32291,0.004 0.32542,0.0628 -0.004,0.11256 -0.73124,0.11057 -0.7276,-0.002 -0.99386,-0.0534 -0.59167,-0.11419 z m 79.09355,-2.64117 c -0.39153,-1.27572 -0.20204,-1.46521 0.21167,-0.21167 0.17452,0.52883 0.26586,1.01295 0.20298,1.07584 -0.0629,0.0629 -0.24948,-0.32599 -0.41465,-0.86417 z M 23.836856,121.76606 c 0.910552,-3.08672 4.159679,-9.94935 6.860759,-14.49091 8.029261,-13.500324 20.637306,-25.224223 34.742003,-32.305707 3.393773,-1.703896 2.947405,-1.276378 -0.659019,0.631191 -18.365857,9.714369 -32.321446,24.997396 -39.618817,43.387306 -1.222314,3.08031 -1.725006,4.13437 -1.324926,2.77812 z m 160.225994,-1.78693 c -1.29616,-3.46334 -4.748,-10.38702 -6.87495,-13.78977 -9.52807,-15.243237 -24.37913,-27.659352 -40.70343,-34.029808 -1.05593,-0.412072 -1.87401,-0.795088 -1.81795,-0.851148 0.20274,-0.202745 5.14249,1.913824 8.76491,3.755567 16.96479,8.625382 30.36908,22.291607 38.34915,39.098539 1.71315,3.6081 3.42996,7.8491 3.25018,8.02888 -0.056,0.056 -0.49157,-0.93951 -0.96791,-2.21226 z M 85.041717,101.65652 c 2.134465,-1.03398 7.823965,-2.921944 8.729559,-2.896761 0.246211,0.0069 -0.966544,0.425024 -2.695006,0.929278 -1.728465,0.504253 -4.109715,1.341673 -5.291667,1.860933 -3.004399,1.3199 -3.349934,1.36946 -0.742886,0.10655 z m 31.005343,-2.267833 c -1.81901,-0.485802 -3.06917,-0.888275 -2.77813,-0.894384 0.61184,-0.01283 6.17795,1.447964 6.41307,1.683087 0.23169,0.23169 -0.0132,0.17855 -3.63494,-0.788703 z M 95.938722,98.331248 c 0.945885,-0.194144 2.076979,-0.345718 2.513542,-0.336833 0.436562,0.0089 -0.09922,0.172857 -1.190625,0.364381 -2.571462,0.45125 -3.55581,0.430752 -1.322917,-0.02755 z m 15.681598,-0.03187 c 0.25743,-0.06708 0.61462,-0.06267 0.79375,0.0098 0.17913,0.07248 -0.0315,0.127362 -0.46806,0.12197 -0.43656,-0.0054 -0.58312,-0.06469 -0.32569,-0.131773 z M 109.634,98.031014 c 0.32911,-0.06328 0.80536,-0.06088 1.05833,0.0053 0.25296,0.06622 -0.0163,0.118004 -0.5984,0.115067 -0.58208,-0.0029 -0.78905,-0.05712 -0.45993,-0.120406 z m -7.94059,-0.274587 c 1.34607,-0.04802 3.54872,-0.04802 4.89479,0 1.34607,0.04802 0.24474,0.08731 -2.44739,0.08731 -2.69214,0 -3.79347,-0.03929 -2.4474,-0.08731 z m 1.38906,-1.919533 c 0,-0.436563 0.11906,-0.79375 0.26459,-0.79375 0.14552,0 0.26458,0.357187 0.26458,0.79375 0,0.436562 -0.11906,0.79375 -0.26458,0.79375 -0.14553,0 -0.26459,-0.357188 -0.26459,-0.79375 z m 0.13229,-3.704167 c -0.0899,-0.145521 -0.0374,-0.264583 0.11668,-0.264583 0.15411,0 0.2802,0.119062 0.2802,0.264583 0,0.145521 -0.0525,0.264583 -0.11668,0.264583 -0.0642,0 -0.19026,-0.119062 -0.2802,-0.264583 z m -0.39687,-13.606642 c 0,-11.728285 -0.0303,-12.556215 -0.46302,-12.669308 -0.25466,-0.06655 0.66807,-0.111154 2.05052,-0.09912 2.20395,0.01919 2.27665,0.03314 0.59027,0.113293 l -1.92327,0.09141 0.0712,12.556084 c 0.0392,6.905847 -0.0181,12.556054 -0.12725,12.556016 -0.10914,-3.8e-5 -0.19844,-5.646807 -0.19844,-12.548377 z M 69.215804,73.260511 c 2.343502,-1.270724 13.025422,-4.967641 13.366899,-4.626163 0.05423,0.05423 -1.402837,0.544987 -3.237931,1.09057 -1.835092,0.545583 -4.954128,1.649499 -6.931187,2.453146 -4.444632,1.806679 -4.680956,1.886675 -3.197781,1.082447 z m 62.838546,-2.724216 c -1.01865,-0.360227 -3.57849,-1.116707 -5.68854,-1.681064 -2.11006,-0.564358 -3.67944,-1.03467 -3.48753,-1.045138 0.93782,-0.05116 11.42503,2.979348 11.42503,3.30151 0,0.191441 -0.29196,0.116756 -2.24896,-0.575308 z M 84.164763,68.16938 c 0.727604,-0.202462 1.501511,-0.359763 1.719792,-0.349558 0.218281,0.0102 -0.198438,0.184205 -0.926042,0.386667 -0.727604,0.202462 -1.50151,0.359764 -1.719791,0.349559 -0.218282,-0.0102 0.198437,-0.184206 0.926041,-0.386668 z m 2.447396,-0.553549 c 0.181901,-0.0734 0.479557,-0.0734 0.661458,0 0.181902,0.0734 0.03307,0.133452 -0.330729,0.133452 -0.363802,0 -0.51263,-0.06005 -0.330729,-0.133452 z m 34.925001,0 c 0.1819,-0.0734 0.47956,-0.0734 0.66146,0 0.1819,0.0734 0.0331,0.133452 -0.33073,0.133452 -0.3638,0 -0.51263,-0.06005 -0.33073,-0.133452 z M 87.935076,67.351248 c 0.181901,-0.0734 0.479557,-0.0734 0.661458,0 0.181901,0.0734 0.03307,0.133452 -0.330729,0.133452 -0.363802,0 -0.51263,-0.06005 -0.330729,-0.133452 z m 31.154684,-0.08935 c -0.70802,-0.180162 -0.72231,-0.201975 -0.13229,-0.201975 0.3638,0 1.01865,0.09089 1.45521,0.201975 0.70803,0.180162 0.72232,0.201975 0.13229,0.201975 -0.3638,0 -1.01864,-0.09089 -1.45521,-0.201975 z M 89.395319,67.078539 c 0.257432,-0.06708 0.614619,-0.06267 0.79375,0.0098 0.179131,0.07248 -0.03149,0.127362 -0.468056,0.12197 -0.436562,-0.0054 -0.583125,-0.06469 -0.325694,-0.131774 z m 1.582465,-0.263613 c 0.254662,-0.06655 0.671381,-0.06655 0.926042,0 0.254661,0.06655 0.0463,0.121 -0.463021,0.121 -0.509323,0 -0.717682,-0.05445 -0.463021,-0.121 z m 25.929166,0 c 0.25466,-0.06655 0.67138,-0.06655 0.92604,0 0.25467,0.06655 0.0463,0.121 -0.46302,0.121 -0.50932,0 -0.71768,-0.05445 -0.46302,-0.121 z M 92.965244,66.545597 c 0.329118,-0.06329 0.805368,-0.06088 1.058334,0.0053 0.252965,0.06622 -0.01631,0.118004 -0.598398,0.115067 -0.582083,-0.0029 -0.789053,-0.05712 -0.459936,-0.120406 z m 21.960416,0 c 0.32912,-0.06329 0.80537,-0.06088 1.05834,0.0053 0.25296,0.06622 -0.0163,0.118004 -0.5984,0.115067 -0.58209,-0.0029 -0.78906,-0.05712 -0.45994,-0.120406 z M 95.214756,66.278283 c 0.402182,-0.06082 0.997495,-0.05919 1.322917,0.0036 0.325421,0.0628 -0.0037,0.11256 -0.731243,0.110573 -0.727604,-0.002 -0.993857,-0.05337 -0.591674,-0.114185 z m 17.197914,0 c 0.40219,-0.06082 0.9975,-0.05919 1.32292,0.0036 0.32542,0.0628 -0.004,0.11256 -0.73124,0.110573 -0.72761,-0.002 -0.99386,-0.05337 -0.59168,-0.114185 z M 98.260819,66.009489 c 0.622311,-0.05589 1.574811,-0.05511 2.116671,0.0017 0.54185,0.05685 0.0327,0.102583 -1.131476,0.101622 -1.164167,-9.61e-4 -1.607505,-0.04748 -0.985195,-0.103369 z m 10.318751,0 c 0.62231,-0.05589 1.57481,-0.05511 2.11667,0.0017 0.54185,0.05685 0.0327,0.102583 -1.13148,0.101622 -1.16416,-9.61e-4 -1.6075,-0.04748 -0.98519,-0.103369 z"
       id="path4571"
       inkscape:connector-curvature="0" />
  </g>
</svg>
